<svg width="18" height="14" viewBox="0 0 18 14" fill="none" xmlns="http://www.w3.org/2000/svg">
<path d="M0.884851 0.200096L0.974462 0.207337L3.07163 0.523891C3.37059 0.577529 3.59042 0.822858 3.6168 1.12182L3.78387 3.09149C3.81025 3.37375 4.03887 3.58479 4.32025 3.58479H16.1954C16.7318 3.58479 17.0835 3.76944 17.4352 4.17393C17.787 4.57841 17.8485 5.15876 17.7694 5.68547L16.934 11.4538C16.7757 12.5626 15.8261 13.3795 14.7094 13.3795H5.11603C3.94655 13.3795 2.9793 12.4826 2.88257 11.3228L2.0736 1.73734L0.74584 1.50872C0.394114 1.44717 0.147906 1.10424 0.209458 0.752512C0.27101 0.391993 0.613943 0.154578 0.974462 0.207337L0.884851 0.200096ZM13.3025 6.83737H10.8668C10.4974 6.83737 10.2073 7.12754 10.2073 7.49686C10.2073 7.85738 10.4974 8.15634 10.8668 8.15634H13.3025C13.6718 8.15634 13.9619 7.85738 13.9619 7.49686C13.9619 7.12754 13.6718 6.83737 13.3025 6.83737Z" fill="#1A1926"/>
</svg>
