<svg width="16" height="16" viewBox="0 0 16 16" fill="none" xmlns="http://www.w3.org/2000/svg">
<path fill-rule="evenodd" clip-rule="evenodd" d="M11.6136 6.55234L12.3533 5.62889C12.6919 5.19315 12.8123 4.68938 12.6995 4.17643C12.6016 3.71012 12.3157 3.26674 11.8867 2.93038L10.8407 2.09713C9.93013 1.37091 8.80133 1.44735 8.15415 2.2806L7.44075 3.1666C7.3655 3.26139 7.37829 3.39746 7.4716 3.47391C7.70401 3.66216 8.15658 4.02906 8.68168 4.45475C9.6001 5.1993 10.7404 6.12371 11.3125 6.58674C11.4051 6.66166 11.5391 6.64637 11.6136 6.55234ZM9.63419 12.9448H13.6836C14.0787 12.9448 14.4 13.2712 14.4 13.6726C14.4 14.0747 14.0787 14.4003 13.6836 14.4003H9.63419C9.23911 14.4003 8.91777 14.0747 8.91777 13.6726C8.91777 13.2712 9.23911 12.9448 9.63419 12.9448Z" fill="white"/>
<path opacity="0.4" d="M13.6836 12.9448H9.6342C9.23912 12.9448 8.91779 13.2712 8.91779 13.6726C8.91779 14.0747 9.23912 14.4003 9.6342 14.4003H13.6836C14.0787 14.4003 14.4 14.0747 14.4 13.6726C14.4 13.2712 14.0787 12.9448 13.6836 12.9448Z" fill="#1A1926"/>
<path d="M6.79769 4.37629L10.6349 7.47689C10.7274 7.55104 10.7432 7.68711 10.671 7.78191L6.12192 13.7094C5.83595 14.0756 5.41454 14.2828 4.96301 14.2904L2.47965 14.321C2.3472 14.3225 2.23131 14.2308 2.20121 14.0993L1.63681 11.6454C1.53898 11.1944 1.63681 10.7281 1.92277 10.3688L6.49442 4.41298C6.56817 4.31742 6.70438 4.30061 6.79769 4.37629Z" fill="#1A1926"/>
<path opacity="0.4" d="M12.3533 5.62889L11.6136 6.55234C11.5391 6.64637 11.4051 6.66166 11.3125 6.58674C10.4133 5.85899 8.11051 3.99144 7.4716 3.47391C7.37829 3.39746 7.3655 3.26139 7.44075 3.1666L8.15415 2.2806C8.80133 1.44735 9.93014 1.37091 10.8407 2.09713L11.8867 2.93038C12.3157 3.26674 12.6016 3.71012 12.6995 4.17643C12.8123 4.68938 12.6919 5.19315 12.3533 5.62889Z" fill="#1A1926"/>
</svg>
