<svg width="18" height="18" viewBox="0 0 18 18" fill="none" xmlns="http://www.w3.org/2000/svg">
<path fill-rule="evenodd" clip-rule="evenodd" d="M3.62217 7.04445C5.51221 7.04445 7.04438 5.51227 7.04438 3.62223C7.04438 1.73219 5.51221 0.200012 3.62217 0.200012C1.73213 0.200012 0.199951 1.73219 0.199951 3.62223C0.199951 5.51227 1.73213 7.04445 3.62217 7.04445ZM3.62217 17.8C5.51221 17.8 7.04438 16.2678 7.04438 14.3778C7.04438 12.4877 5.51221 10.9556 3.62217 10.9556C1.73213 10.9556 0.199951 12.4877 0.199951 14.3778C0.199951 16.2678 1.73213 17.8 3.62217 17.8ZM17.8 3.62223C17.8 5.51227 16.2678 7.04445 14.3777 7.04445C12.4877 7.04445 10.9555 5.51227 10.9555 3.62223C10.9555 1.73219 12.4877 0.200012 14.3777 0.200012C16.2678 0.200012 17.8 1.73219 17.8 3.62223ZM14.3777 17.8C16.2678 17.8 17.8 16.2678 17.8 14.3778C17.8 12.4877 16.2678 10.9556 14.3777 10.9556C12.4877 10.9556 10.9555 12.4877 10.9555 14.3778C10.9555 16.2678 12.4877 17.8 14.3777 17.8Z" fill="#1A1926"/>
</svg>
