<svg width="40" height="40" viewBox="0 0 40 40" fill="none" xmlns="http://www.w3.org/2000/svg">
<rect width="40" height="40" rx="12" fill="#F5F7FA"/>
<path d="M27.5483 12.4657C27.1481 12.0542 26.5559 11.902 26.0037 12.0631L13.1264 15.8069C12.5438 15.9696 12.1308 16.4342 12.0195 17.0237C11.9059 17.6245 12.3029 18.3879 12.8215 18.7068L16.8479 21.1807C17.2609 21.4352 17.7939 21.3716 18.1356 21.0269L22.7463 16.3875C22.9784 16.1451 23.3626 16.1451 23.5947 16.3875C23.8268 16.6203 23.8268 16.9996 23.5947 17.2412L18.976 21.8805C18.6335 22.2252 18.5694 22.7599 18.8215 23.1762L21.2817 27.243C21.5699 27.7254 22.0661 28 22.6103 28C22.6743 28 22.7463 28 22.8104 27.9911C23.4346 27.9114 23.9308 27.4838 24.1149 26.8798L27.9325 14.0199C28.1005 13.4723 27.9485 12.8764 27.5483 12.4657Z" fill="#1A1926"/>
<path opacity="0.4" d="M17.9636 25.8046C18.1973 26.0406 18.1973 26.4231 17.9636 26.6591L16.8703 27.7583C16.7535 27.8767 16.5998 27.9355 16.4461 27.9355C16.2925 27.9355 16.1388 27.8767 16.022 27.7583C15.7875 27.5224 15.7875 27.1406 16.022 26.9047L17.1144 25.8046C17.3489 25.5695 17.7291 25.5695 17.9636 25.8046ZM17.3363 22.7542C17.57 22.9901 17.57 23.3726 17.3363 23.6086L16.2431 24.7078C16.1262 24.8262 15.9726 24.885 15.8189 24.885C15.6653 24.885 15.5116 24.8262 15.3947 24.7078C15.1602 24.4719 15.1602 24.0902 15.3947 23.8542L16.4872 22.7542C16.7217 22.519 17.1018 22.519 17.3363 22.7542ZM14.3261 21.7939C14.5598 22.0299 14.5598 22.4124 14.3261 22.6483L13.2329 23.7476C13.1161 23.866 12.9624 23.9247 12.8087 23.9247C12.6551 23.9247 12.5014 23.866 12.3846 23.7476C12.1501 23.5116 12.1501 23.1299 12.3846 22.894L13.477 21.7939C13.7115 21.5588 14.0917 21.5588 14.3261 21.7939Z" fill="#1A1926"/>
</svg>
