<svg width="22" height="22" viewBox="0 0 22 22" fill="none" xmlns="http://www.w3.org/2000/svg">
<path fill-rule="evenodd" clip-rule="evenodd" d="M18.3941 12.3904C18.7088 12.5576 18.9517 12.8216 19.1225 13.0856C19.4553 13.6312 19.4283 14.3 19.1045 14.8896L18.475 15.9456C18.1423 16.5088 17.5217 16.8608 16.8832 16.8608C16.5685 16.8608 16.2177 16.7728 15.9299 16.5968C15.6961 16.4472 15.4263 16.3944 15.1385 16.3944C14.2482 16.3944 13.5018 17.1248 13.4748 17.996C13.4748 19.008 12.6474 19.8 11.6132 19.8H10.3901C9.34689 19.8 8.51952 19.008 8.51952 17.996C8.50153 17.1248 7.75509 16.3944 6.86476 16.3944C6.56799 16.3944 6.29819 16.4472 6.07336 16.5968C5.78558 16.7728 5.42585 16.8608 5.12008 16.8608C4.47257 16.8608 3.85203 16.5088 3.51928 15.9456L2.89875 14.8896C2.566 14.3176 2.54802 13.6312 2.88077 13.0856C3.02466 12.8216 3.29445 12.5576 3.60022 12.3904C3.85203 12.2672 4.01391 12.0648 4.1668 11.8272C4.61646 11.0704 4.34666 10.076 3.58224 9.62721C2.69191 9.12561 2.40412 8.00801 2.91674 7.13681L3.51928 6.09841C4.04089 5.22721 5.15605 4.91921 6.05537 5.42961C6.83778 5.85201 7.85402 5.57041 8.31267 4.82241C8.45657 4.57601 8.5375 4.31201 8.51952 4.04801C8.50153 3.70481 8.60046 3.37921 8.77133 3.11521C9.10408 2.56961 9.70662 2.21761 10.3631 2.20001H11.6312C12.2967 2.20001 12.8992 2.56961 13.232 3.11521C13.3938 3.37921 13.5018 3.70481 13.4748 4.04801C13.4568 4.31201 13.5377 4.57601 13.6816 4.82241C14.1403 5.57041 15.1565 5.85201 15.9479 5.42961C16.8383 4.91921 17.9624 5.22721 18.475 6.09841L19.0776 7.13681C19.5992 8.00801 19.3114 9.12561 18.4121 9.62721C17.6476 10.076 17.3778 11.0704 17.8365 11.8272C17.9804 12.0648 18.1423 12.2672 18.3941 12.3904Z" fill="white"/>
<path d="M11.0106 13.4904C9.59868 13.4904 8.45654 12.3904 8.45654 11.0088C8.45654 9.62717 9.59868 8.51837 11.0106 8.51837C12.4226 8.51837 13.5377 9.62717 13.5377 11.0088C13.5377 12.3904 12.4226 13.4904 11.0106 13.4904Z" fill="#1A1926"/>
<path opacity="0.25" d="M19.1225 13.0856C18.9517 12.8216 18.7088 12.5576 18.3941 12.3904C18.1423 12.2672 17.9804 12.0648 17.8365 11.8272C17.3778 11.0704 17.6476 10.076 18.4121 9.62721C19.3114 9.12561 19.5992 8.00801 19.0776 7.13681L18.475 6.09841C17.9624 5.22721 16.8383 4.91921 15.9479 5.42961C15.1565 5.85201 14.1403 5.57041 13.6816 4.82241C13.5377 4.57601 13.4568 4.31201 13.4748 4.04801C13.5018 3.70481 13.3938 3.37921 13.232 3.11521C12.8992 2.56961 12.2967 2.20001 11.6312 2.20001H10.3631C9.70662 2.21761 9.10408 2.56961 8.77133 3.11521C8.60046 3.37921 8.50153 3.70481 8.51952 4.04801C8.5375 4.31201 8.45657 4.57601 8.31267 4.82241C7.85402 5.57041 6.83778 5.85201 6.05537 5.42961C5.15605 4.91921 4.04089 5.22721 3.51928 6.09841L2.91674 7.13681C2.40412 8.00801 2.69191 9.12561 3.58224 9.62721C4.34666 10.076 4.61646 11.0704 4.1668 11.8272C4.01391 12.0648 3.85203 12.2672 3.60022 12.3904C3.29445 12.5576 3.02466 12.8216 2.88077 13.0856C2.54802 13.6312 2.566 14.3176 2.89875 14.8896L3.51928 15.9456C3.85203 16.5088 4.47257 16.8608 5.12008 16.8608C5.42585 16.8608 5.78558 16.7728 6.07336 16.5968C6.29819 16.4472 6.56799 16.3944 6.86476 16.3944C7.75509 16.3944 8.50153 17.1248 8.51952 17.996C8.51952 19.008 9.34689 19.8 10.3901 19.8H11.6132C12.6474 19.8 13.4748 19.008 13.4748 17.996C13.5018 17.1248 14.2482 16.3944 15.1385 16.3944C15.4263 16.3944 15.6961 16.4472 15.9299 16.5968C16.2177 16.7728 16.5685 16.8608 16.8832 16.8608C17.5217 16.8608 18.1423 16.5088 18.475 15.9456L19.1045 14.8896C19.4283 14.3 19.4553 13.6312 19.1225 13.0856Z" fill="#1A1926"/>
</svg>
