<svg width="13" height="12" viewBox="0 0 13 12" fill="none" xmlns="http://www.w3.org/2000/svg">
<path d="M8.74271 5.87168C8.92031 5.63888 9.57951 4.91088 10.4315 5.42928C10.9747 5.75568 11.4315 6.19728 11.9203 6.67008C12.1067 6.85088 12.2403 7.05728 12.3283 7.27728C12.5947 7.94288 12.4563 8.74288 12.1715 9.40208C11.8339 10.1869 11.1875 10.7797 10.3731 11.0389C10.0115 11.1549 9.63231 11.2045 9.25391 11.2045H2.54911C1.88191 11.2045 1.29151 11.0493 0.807511 10.7581C0.504311 10.5757 0.450712 10.1557 0.675512 9.88208C1.05151 9.42608 1.42271 8.96848 1.79711 8.50688C2.51071 7.62368 2.99151 7.36768 3.52591 7.59248C3.74271 7.68528 3.96031 7.82528 4.18431 7.97248C4.78111 8.36768 5.61071 8.91008 6.70351 8.32128C7.45551 7.91008 7.88991 7.20448 8.26911 6.59328C8.42431 6.34448 8.57151 6.09648 8.74271 5.87168ZM3.40799 0.351196C4.50399 0.351196 5.39599 1.244 5.39599 2.34C5.39599 3.436 4.50399 4.328 3.40799 4.328C2.31119 4.328 1.41999 3.436 1.41999 2.34C1.41999 1.244 2.31119 0.351196 3.40799 0.351196Z" fill="#1A1926"/>
</svg>
