<svg width="6" height="8" viewBox="0 0 6 8" fill="none" xmlns="http://www.w3.org/2000/svg">
<path fill-rule="evenodd" clip-rule="evenodd" d="M5.45172 0.494122C5.80309 0.842505 5.99999 1.3392 5.99999 1.93072L6 5.02192C6 6.65186 4.62393 8 2.98813 8C1.33015 8 0 6.58107 0 4.97347L1.03827e-06 1.97605C1.15364e-06 1.65782 0.259965 1.39985 0.580645 1.39985C0.901328 1.39985 1.16129 1.65782 1.16129 1.97605L1.16129 4.97347C1.16129 5.98264 2.00917 6.8476 2.98813 6.8476C3.98928 6.8476 4.83871 6.00875 4.83871 5.02192L4.8387 1.93072C4.8387 1.59841 4.73318 1.41073 4.63092 1.30935C4.5242 1.20354 4.37874 1.14885 4.22376 1.15258C3.94322 1.15933 3.58064 1.36871 3.58064 1.97917V4.97347C3.58064 5.2917 3.32068 5.54967 3 5.54967C2.67932 5.54967 2.41935 5.2917 2.41935 4.97347V1.97917C2.41935 0.761569 3.26645 0.0228859 4.19559 0.000513293C4.64544 -0.0103187 5.10481 0.150161 5.45172 0.494122Z" fill="#1A1926"/>
</svg>
